<svg width="250" height="221" viewBox="0 0 250 221" fill="none" xmlns="http://www.w3.org/2000/svg">
<path d="M51.9615 44.5C32.683 44.5 19.825 33.3859 11.7613 22.2075C7.73027 16.6195 4.90802 11.0284 3.09352 6.83277C2.18658 4.73568 1.5322 2.98911 1.10503 1.76844C0.921402 1.24368 0.779793 0.816212 0.6782 0.499992L103.245 0.499992C103.143 0.816212 103.002 1.24368 102.818 1.76844C102.391 2.98911 101.736 4.73568 100.83 6.83277C99.015 11.0284 96.1928 16.6195 92.1618 22.2075C84.098 33.3859 71.2401 44.5 51.9615 44.5Z" fill="white" stroke="black"/>
<path d="M195.669 142.289C206.134 142.289 207.296 73.6846 195.669 78.9172C190.531 81.2292 167.459 83.4277 141.599 84.309C108.933 85.4223 71.8189 84.4337 60.7859 78.9172C41.0186 69.0335 39.2744 142.289 66.5998 142.289H195.669Z" fill="white" stroke="black" stroke-width="1.16278"/>
<path d="M197.962 44.5C178.683 44.5 165.825 33.3859 157.761 22.2075C153.73 16.6195 150.908 11.0284 149.094 6.83277C148.187 4.73568 147.532 2.98911 147.105 1.76844C146.921 1.24368 146.78 0.816212 146.678 0.499992L249.245 0.499992C249.143 0.816212 249.002 1.24368 248.818 1.76844C248.391 2.98911 247.736 4.73568 246.83 6.83277C245.015 11.0284 242.193 16.6195 238.162 22.2075C230.098 33.3859 217.24 44.5 197.962 44.5Z" fill="white" stroke="black"/>
<path d="M162.278 116.953L172.743 104.744L181.464 116.953L188.441 104.744L195.417 116.953L203.557 104.744" stroke="black" stroke-width="1.16278"/>
<path d="M91.5 23C79.1759 41.704 50 52 26 47" stroke="black"/>
<path d="M90 25.5C76.7948 47.6737 41 55 26 51.5" stroke="black"/>
<path d="M89 26C77.3655 46.2335 49.5 63.5 26 58.5" stroke="black"/>
<path d="M223.312 46.1026C201.848 52.5089 172.88 41.6422 157.709 22.3851" stroke="black"/>
<path d="M225 53C207.455 67.7118 174.889 42.4663 160 25" stroke="black"/>
<path d="M224.712 49.4955C202.81 56.164 174.302 42.3368 159.5 24.5" stroke="black"/>
<circle cx="198" cy="19" r="10" fill="#0B0B0B"/>
<circle cx="52" cy="19" r="10" fill="#0B0B0B"/>
<path d="M73.792 192.618L70.3008 196.842V209H65.833V173.453H70.3008V190.616L73.2305 186.734L82.8008 173.453H88.1719L76.624 189.103L89.0752 209H83.7285L73.792 192.618ZM120.12 192.569H107.547V205.167H122.195V209H103.079V173.453H121.951V177.311H107.547V188.736H120.12V192.569ZM154.974 192.569H142.4V205.167H157.049V209H137.933V173.453H156.805V177.311H142.4V188.736H154.974V192.569ZM195.027 204.581L194.246 205.558C192 208.178 188.712 209.488 184.383 209.488C180.542 209.488 177.522 208.219 175.325 205.68C173.144 203.124 172.029 199.519 171.98 194.864V187.882C171.98 182.901 172.973 179.174 174.959 176.7C176.961 174.21 179.948 172.965 183.919 172.965C187.304 172.965 189.949 173.909 191.854 175.797C193.774 177.685 194.832 180.379 195.027 183.878H190.56C190.381 181.664 189.762 179.939 188.704 178.702C187.662 177.449 186.076 176.822 183.943 176.822C181.388 176.822 179.516 177.66 178.328 179.337C177.14 180.997 176.521 183.658 176.473 187.32V194.571C176.473 198.152 177.156 200.903 178.523 202.823C179.891 204.728 181.852 205.68 184.407 205.68C186.816 205.68 188.647 205.094 189.9 203.922L190.56 203.312V195.108H184.065V191.3H195.027V204.581Z" fill="black"/>
<circle cx="58" cy="14" r="3" fill="white"/>
<circle cx="204" cy="14" r="3" fill="white"/>
<path d="M135 117C137.2 117 138.583 117 139 117" stroke="black"/>
</svg>
