<?xml version="1.0" encoding="UTF-8" standalone="no"?>
<svg
   xmlns:dc="http://purl.org/dc/elements/1.1/"
   xmlns:cc="http://creativecommons.org/ns#"
   xmlns:rdf="http://www.w3.org/1999/02/22-rdf-syntax-ns#"
   xmlns:svg="http://www.w3.org/2000/svg"
   xmlns="http://www.w3.org/2000/svg"
   xmlns:sodipodi="http://sodipodi.sourceforge.net/DTD/sodipodi-0.dtd"
   xmlns:inkscape="http://www.inkscape.org/namespaces/inkscape"
   width="210mm"
   height="297mm"
   viewBox="0 0 210 297"
   version="1.1"
   id="svg1234"
   inkscape:version="1.0.1 (3bc2e813f5, 2020-09-07)"
   sodipodi:docname="commingsoon.svg">
  <defs
     id="defs1228">
    <clipPath
       clipPathUnits="userSpaceOnUse"
       id="clipPath1188">
      <path
         style="display:none;fill:#ff00ff;fill-opacity:1;stroke:#ffffff;stroke-width:0.75px;stroke-linecap:butt;stroke-linejoin:miter;stroke-opacity:1"
         d="m 400.08313,512.91415 9.84432,39.37726 154.48005,-2.01934 h 44.42563 v -45.18289 l -139.83978,-8.32981 z"
         id="path1190"
         clip-path="none" />
      <path
         id="lpe_path-effect1192"
         style="fill:#ff00ff;fill-opacity:1;stroke:#ffffff;stroke-width:0.75px;stroke-linecap:butt;stroke-linejoin:miter;stroke-opacity:1"
         class="powerclip"
         d="M 111.6095,498.7425 H 609.30747 V 668.87493 H 111.6095 Z m 288.47363,14.17165 9.84432,39.37726 154.48005,-2.01934 h 44.42563 v -45.18289 l -139.83978,-8.32981 z" />
    </clipPath>
    <inkscape:path-effect
       effect="powerclip"
       id="path-effect1192"
       is_visible="true"
       lpeversion="1"
       inverse="true"
       flatten="false"
       hide_clip="false"
       message="Use fill-rule evenodd on &lt;b&gt;fill and stroke&lt;/b&gt; dialog if no flatten result after convert clip to paths." />
    <clipPath
       clipPathUnits="userSpaceOnUse"
       id="clipPath1163-4">
      <path
         style="fill:#ff00ff;fill-opacity:1;stroke:#ffffff;stroke-width:0.75px;stroke-linecap:butt;stroke-linejoin:miter;stroke-opacity:1"
         d="m 1003.8679,515.94317 9.8443,39.37726 154.4801,-2.01934 h 44.4256 V 508.1182 l -139.8398,-8.32981 z"
         id="path1165-9"
         clip-path="none" />
    </clipPath>
    <clipPath
       clipPathUnits="userSpaceOnUse"
       id="clipPath1188-2">
      <path
         style="display:none;fill:#ff00ff;fill-opacity:1;stroke:#ffffff;stroke-width:0.75px;stroke-linecap:butt;stroke-linejoin:miter;stroke-opacity:1"
         d="m 400.08313,512.91415 9.84432,39.37726 154.48005,-2.01934 h 44.42563 v -45.18289 l -139.83978,-8.32981 z"
         id="path1190-5"
         clip-path="none" />
      <path
         id="lpe_path-effect1192-1"
         style="fill:#ff00ff;fill-opacity:1;stroke:#ffffff;stroke-width:0.75px;stroke-linecap:butt;stroke-linejoin:miter;stroke-opacity:1"
         class="powerclip"
         d="M 111.6095,498.7425 H 609.30747 V 668.87493 H 111.6095 Z m 288.47363,14.17165 9.84432,39.37726 154.48005,-2.01934 h 44.42563 v -45.18289 l -139.83978,-8.32981 z" />
    </clipPath>
    <clipPath
       clipPathUnits="userSpaceOnUse"
       id="clipPath1163-4-5">
      <path
         style="fill:#ff00ff;fill-opacity:1;stroke:#ffffff;stroke-width:0.75px;stroke-linecap:butt;stroke-linejoin:miter;stroke-opacity:1"
         d="m 1003.8679,515.94317 9.8443,39.37726 154.4801,-2.01934 h 44.4256 V 508.1182 l -139.8398,-8.32981 z"
         id="path1165-9-9"
         clip-path="none" />
    </clipPath>
  </defs>
  <sodipodi:namedview
     id="base"
     pagecolor="#ffffff"
     bordercolor="#666666"
     borderopacity="1.0"
     inkscape:pageopacity="0.0"
     inkscape:pageshadow="2"
     inkscape:zoom="0.7"
     inkscape:cx="493.70158"
     inkscape:cy="567.07589"
     inkscape:document-units="mm"
     inkscape:current-layer="layer1"
     inkscape:document-rotation="0"
     showgrid="false"
     inkscape:window-width="1920"
     inkscape:window-height="1017"
     inkscape:window-x="-8"
     inkscape:window-y="-8"
     inkscape:window-maximized="1" />
  <metadata
     id="metadata1231">
    <rdf:RDF>
      <cc:Work
         rdf:about="">
        <dc:format>image/svg+xml</dc:format>
        <dc:type
           rdf:resource="http://purl.org/dc/dcmitype/StillImage" />
        <dc:title></dc:title>
      </cc:Work>
    </rdf:RDF>
  </metadata>
  <g
     inkscape:label="Layer 1"
     inkscape:groupmode="layer"
     id="layer1">
    <g
       id="g1358"
       transform="matrix(1.1895722,0,0,1.2479182,-39.259308,0.1231318)">
      <g
         transform="matrix(0.01895095,0,0,-0.01895095,25.152231,158.37529)"
         fill="#000000"
         stroke="none"
         id="g26">
        <path
           d="m 6598,7122 c 3,-1168 2,-1230 -15,-1250 -10,-12 -58,-46 -108,-75 l -90,-53 v -359 c 0,-382 3,-416 50,-521 35,-77 89,-126 203,-183 l 102,-51 v -60 c 0,-55 3,-63 36,-100 49,-54 176,-116 279,-136 105,-20 243,-63 252,-77 4,-7 6,-142 5,-301 -3,-265 -2,-290 15,-308 16,-18 18,-44 18,-266 0,-218 2,-254 19,-305 32,-93 92,-148 198,-181 13,-4 15,-11 9,-38 -23,-97 -71,-151 -178,-199 -140,-63 -263,-222 -289,-374 -3,-22 -24,-77 -46,-122 -33,-66 -39,-88 -34,-116 8,-43 40,-73 88,-81 30,-5 46,-19 88,-71 94,-118 190,-186 320,-225 l 55,-16 3,-232 2,-232 -31,-27 c -71,-64 -92,-158 -87,-402 l 3,-163 37,-29 c 50,-40 55,-60 24,-106 -22,-31 -26,-49 -26,-105 0,-63 2,-69 30,-90 40,-29 38,-58 -5,-105 -33,-36 -35,-42 -33,-98 l 3,-60 188,-3 187,-2 v 33 c 0,18 7,42 15,53 22,29 19,122 -5,159 -26,39 -26,95 0,128 24,30 31,132 16,228 -8,53 -7,58 24,100 21,30 30,52 27,68 -3,14 2,50 10,80 15,57 12,143 -6,165 -5,6 -14,38 -21,71 -10,49 -20,67 -57,103 -31,31 -42,49 -37,61 3,9 9,106 11,216 6,206 12,235 50,235 8,0 54,39 102,88 81,79 91,93 110,156 14,44 21,95 21,145 0,45 9,111 21,159 19,76 19,82 3,106 -23,36 -78,36 -116,-1 -15,-14 -31,-23 -35,-19 -5,4 -9,107 -10,229 l -1,222 -34,6 c -50,8 -97,37 -103,62 -3,12 -5,58 -3,102 l 3,79 80,39 c 97,47 112,60 135,113 16,36 18,71 17,258 0,154 3,220 11,228 9,9 12,77 12,239 v 226 l 33,44 c 70,93 107,182 107,256 0,43 33,159 51,178 5,5 9,16 9,25 0,38 62,89 202,165 199,108 198,108 245,167 123,154 285,416 317,512 15,42 17,116 16,605 0,510 -1,557 -17,569 -25,18 -77,15 -128,-10 -24,-12 -48,-19 -51,-15 -7,6 -6,265 0,276 2,3 7,159 10,346 4,187 11,464 17,615 5,151 9,321 8,378 -1,98 -2,102 -24,102 h -22 l -7,-312 c -4,-172 -8,-320 -8,-328 -1,-18 -17,-650 -21,-836 -2,-71 -6,-135 -10,-141 -5,-8 -32,-6 -94,8 -47,10 -88,21 -90,23 -3,2 -28,-6 -56,-19 -28,-13 -55,-21 -60,-18 -5,3 -7,26 -3,52 3,25 8,156 11,291 3,135 7,286 10,335 3,50 10,250 15,445 6,195 13,388 16,428 l 7,72 h -30 -30 l -7,-267 c -4,-148 -11,-401 -16,-563 -5,-162 -12,-398 -16,-523 -4,-125 -11,-230 -15,-233 -5,-3 -9,8 -9,24 0,55 -76,58 -165,8 -33,-19 -125,-68 -205,-108 -207,-105 -497,-267 -512,-285 -9,-11 -15,-66 -18,-172 -6,-180 -6,-180 -98,-141 l -49,21 -71,-35 c -39,-20 -73,-36 -76,-36 -3,0 -6,19 -6,43 0,48 -6,59 -37,76 -36,19 -80,13 -145,-20 -44,-22 -63,-28 -72,-19 -7,7 -13,221 -17,708 -4,383 -10,883 -14,1110 -7,406 -8,412 -28,412 -20,0 -20,-1 -14,-482 4,-266 10,-778 14,-1139 l 6,-655 -99,-60 c -54,-32 -115,-66 -135,-74 -21,-8 -41,-18 -45,-22 -4,-5 -16,-8 -26,-8 -17,0 -18,44 -18,1220 v 1220 h -22 -23 z m 347,-2557 53,-16 4,-52 c 2,-29 8,-60 13,-71 7,-16 5,-17 -16,-11 -36,11 -126,72 -133,91 -3,8 -6,29 -6,45 0,34 9,36 85,14 z m 200,-85 c 0,-18 -6,-35 -12,-37 -9,-3 -13,8 -13,37 0,29 4,40 13,38 6,-3 12,-20 12,-38 z m 590,-320 c 0,-38 -39,-35 -43,3 -3,25 0,28 20,25 17,-2 23,-9 23,-28 z m 188,-1886 c 26,-3 47,-9 47,-13 0,-4 -11,-31 -25,-59 -14,-29 -25,-57 -25,-64 0,-6 -11,-31 -25,-55 -26,-43 -55,-57 -55,-27 0,26 -37,70 -69,84 -40,16 -80,-3 -106,-53 -11,-20 -24,-37 -28,-37 -5,0 -22,14 -38,31 -34,36 -51,93 -47,152 3,41 4,42 43,49 44,7 252,2 328,-8 z m -206,-786 c -2,-18 -4,-6 -4,27 0,33 2,48 4,33 2,-15 2,-42 0,-60 z m 96,-485 c 7,-64 -56,-199 -78,-164 -2,5 3,19 13,32 30,39 44,86 40,129 -5,52 18,55 25,3 z m -43,-28 c 0,-31 -30,-93 -57,-117 -17,-15 -23,-16 -58,-4 -30,11 -40,19 -39,35 3,102 4,103 22,96 34,-15 67,-15 92,-1 36,20 40,19 40,-9 z m 90,-800 c 0,-34 -1,-35 -27,-29 -41,10 -56,24 -42,40 9,11 20,15 62,23 4,0 7,-15 7,-34 z m -167,-5 c -6,-24 -16,-25 -32,-6 -10,11 -8,16 6,24 23,13 32,7 26,-18 z M 7578,95 c 6,-14 16,-25 21,-25 5,0 12,-7 15,-16 5,-13 1,-15 -19,-10 -18,5 -27,2 -31,-9 -10,-25 -24,-6 -24,34 0,56 19,69 38,26 z m 192,-34 c 0,-27 -15,-41 -41,-41 -33,0 -36,6 -12,32 17,19 53,25 53,9 z"
           id="path24" />
      </g>
      <path
         d="m 496.25927,503.97474 c -16.6612,0.83878 -30.6153,2.82133 -63.4797,8.99773 -41.3286,7.73956 -53.262,9.15022 -75.4894,8.80709 -17.1567,-0.26689 -24.515,-1.22003 -49.1826,-6.36703 -16.47036,-3.43134 -19.32975,-4.00322 -24.78176,-4.91825 -10.10341,-1.71567 -34.58035,-4.68949 -47.46681,-5.83326 -8.42584,-0.7244 -31.11086,-0.61002 -38.69788,0.19062 -13.03906,1.41066 -24.0574,3.27884 -48.61055,8.27333 -8.27333,1.71567 -18.71984,3.77447 -23.2187,4.57512 -4.49886,0.83876 -8.2352,1.56316 -8.27333,1.63941 -0.0763,0.0763 -0.22875,3.77447 -0.38126,8.27333 -0.26688,9.22647 0.22876,13.68721 1.94442,17.27105 0.53377,1.18191 2.6307,3.85072 5.03263,6.48141 9.30273,10.10337 10.82777,12.46718 12.69594,19.36798 4.15572,15.05974 7.43455,25.35375 11.74279,36.56277 4.95637,12.96282 10.78963,25.54438 13.64908,29.58573 9.79838,13.72534 31.33948,23.33307 59.62891,26.53565 2.74511,0.30501 8.69273,0.45751 15.82235,0.45751 19.71104,-0.0763 32.33076,-2.09692 44.22611,-7.2058 19.67296,-8.46395 34.77076,-23.98121 49.33496,-50.82187 3.5457,-6.55767 4.9945,-10.17963 7.5108,-18.83422 3.1645,-11.13278 4.232,-14.22097 6.4433,-18.79609 2.4401,-5.03262 4.0414,-7.01517 6.7483,-8.2352 1.9444,-0.87689 2.3257,-0.91502 10.1415,-0.83876 9.7602,0.0763 11.2472,0.41938 14.1447,3.01194 4.5751,4.11759 7.0152,8.76897 11.2853,21.65553 6.367,19.21548 12.5815,31.91141 21.3505,43.61608 3.5076,4.68949 9.7984,11.36152 13.8016,14.64036 21.1218,17.27105 56.0832,25.20124 87.8041,19.90174 26.2686,-4.38449 47.3521,-17.57606 58.5992,-36.63903 4.4227,-7.54894 8.235,-17.95732 12.6576,-34.80899 7.587,-28.8232 10.4846,-35.03773 18.8725,-40.56599 2.2112,-1.44878 3.3169,-2.44006 3.6601,-3.27883 0.4955,-1.22003 0.5337,-1.86817 0.4955,-12.39093 0,-3.16446 0,-6.93893 0.038,-8.46397 0,-2.21129 -0.1143,-2.93569 -0.7624,-3.81259 -1.182,-1.56316 -3.4314,-2.70694 -6.4435,-3.16445 -6.2907,-1.0294 -12.8865,-2.47818 -23.0661,-5.14701 -14.1064,-3.6982 -17.309,-4.30822 -33.7411,-6.6339 -22.1129,-3.12633 -31.0725,-3.73634 -44.0352,-3.08821 z M 253.35874,514.65 c 9.95078,0.49564 16.12722,1.22004 24.43877,2.89758 32.97886,6.59579 49.90686,17.00417 53.75766,33.01707 0.8387,3.5457 1.0294,10.56088 0.3812,14.79286 -1.6013,10.294 -5.8333,21.92241 -13.9923,38.31656 -5.6426,11.28528 -9.9127,17.57606 -16.661,24.55311 -14.37345,14.75474 -32.94081,23.10432 -56.27389,25.20124 -14.7166,1.37253 -37.51594,-1.22002 -49.02996,-5.56638 -13.91592,-5.22326 -24.62928,-15.09787 -31.07262,-28.63258 -5.03263,-10.52276 -11.09465,-32.36892 -13.15345,-47.39054 -0.99128,-7.01518 -0.99128,-22.3418 -0.0381,-26.42128 1.1819,-4.95637 3.31696,-8.69271 7.32018,-12.65781 7.62515,-7.62519 18.83427,-11.8953 38.31649,-14.64036 11.43782,-1.60129 26.00194,-2.97383 36.79158,-3.43134 10.06528,-0.45751 10.71338,-0.45751 19.21544,-0.0381 z m 236.03773,0 c 19.9018,0.8769 41.7859,3.46947 52.8042,6.29078 17.0422,4.38449 26.4594,11.36154 30.0813,22.30369 2.7832,8.42582 1.9442,25.50625 -2.0968,43.53982 -2.1351,9.53148 -6.6339,23.94309 -9.684,30.84388 -6.367,14.64036 -18.0336,25.43 -33.0169,30.65326 -4.3464,1.52503 -14.2209,3.62196 -21.6936,4.5751 -6.5195,0.8769 -19.5205,1.18191 -25.9257,0.61002 -26.6881,-2.3638 -47.7336,-13.19158 -62.4121,-32.06391 -4.9945,-6.44329 -11.7809,-18.87234 -17.233,-31.64453 -2.7832,-6.51954 -5.9095,-16.08914 -6.977,-21.35052 -1.1438,-5.7189 -1.22,-14.03035 -0.1525,-18.10983 2.0207,-7.70144 8.995,-13.99222 17.1683,-19.21071 8.1732,-5.21849 17.5454,-9.36468 32.9292,-12.77695 4.8039,-1.06753 9.0645,-1.84911 13.3964,-2.42577 4.3321,-0.57665 8.7356,-0.94838 13.8255,-1.1962 8.7689,-0.45751 9.3408,-0.45751 18.9867,-0.0381 z"
         id="path60"
         style="stroke-width:0.0381258"
         sodipodi:nodetypes="sccccccccccccccccccccccccccccccccccccscssscccccccccccccsssccccccccsccscscss"
         clip-path="url(#clipPath1188-2)"
         inkscape:path-effect="#path-effect1192"
         inkscape:original-d="m 496.25927,503.97474 c -16.6612,0.83878 -30.6153,2.82133 -63.4797,8.99773 -41.3286,7.73956 -53.262,9.15022 -75.4894,8.80709 -17.1567,-0.26689 -24.515,-1.22003 -49.1826,-6.36703 -16.47036,-3.43134 -19.32975,-4.00322 -24.78176,-4.91825 -10.10341,-1.71567 -34.58035,-4.68949 -47.46681,-5.83326 -8.42584,-0.7244 -31.11086,-0.61002 -38.69788,0.19062 -13.03906,1.41066 -24.0574,3.27884 -48.61055,8.27333 -8.27333,1.71567 -18.71984,3.77447 -23.2187,4.57512 -4.49886,0.83876 -8.2352,1.56316 -8.27333,1.63941 -0.0763,0.0763 -0.22875,3.77447 -0.38126,8.27333 -0.26688,9.22647 0.22876,13.68721 1.94442,17.27105 0.53377,1.18191 2.6307,3.85072 5.03263,6.48141 9.30273,10.10337 10.82777,12.46718 12.69594,19.36798 4.15572,15.05974 7.43455,25.35375 11.74279,36.56277 4.95637,12.96282 10.78963,25.54438 13.64908,29.58573 9.79838,13.72534 31.33948,23.33307 59.62891,26.53565 2.74511,0.30501 8.69273,0.45751 15.82235,0.45751 19.71104,-0.0763 32.33076,-2.09692 44.22611,-7.2058 19.67296,-8.46395 34.77076,-23.98121 49.33496,-50.82187 3.5457,-6.55767 4.9945,-10.17963 7.5108,-18.83422 3.1645,-11.13278 4.232,-14.22097 6.4433,-18.79609 2.4401,-5.03262 4.0414,-7.01517 6.7483,-8.2352 1.9444,-0.87689 2.3257,-0.91502 10.1415,-0.83876 9.7602,0.0763 11.2472,0.41938 14.1447,3.01194 4.5751,4.11759 7.0152,8.76897 11.2853,21.65553 6.367,19.21548 12.5815,31.91141 21.3505,43.61608 3.5076,4.68949 9.7984,11.36152 13.8016,14.64036 21.1218,17.27105 56.0832,25.20124 87.8041,19.90174 26.2686,-4.38449 47.3521,-17.57606 58.5992,-36.63903 4.4227,-7.54894 8.235,-17.95732 12.6576,-34.80899 7.587,-28.8232 10.4846,-35.03773 18.8725,-40.56599 2.2112,-1.44878 3.3169,-2.44006 3.6601,-3.27883 0.4955,-1.22003 0.5337,-1.86817 0.4955,-12.39093 0,-3.16446 0,-6.93893 0.038,-8.46397 0,-2.21129 -0.1143,-2.93569 -0.7624,-3.81259 -1.182,-1.56316 -3.4314,-2.70694 -6.4435,-3.16445 -6.2907,-1.0294 -12.8865,-2.47818 -23.0661,-5.14701 -14.1064,-3.6982 -17.309,-4.30822 -33.7411,-6.6339 -22.1129,-3.12633 -31.0725,-3.73634 -44.0352,-3.08821 z M 253.35874,514.65 c 9.95078,0.49564 16.12722,1.22004 24.43877,2.89758 32.97886,6.59579 49.90686,17.00417 53.75766,33.01707 0.8387,3.5457 1.0294,10.56088 0.3812,14.79286 -1.6013,10.294 -5.8333,21.92241 -13.9923,38.31656 -5.6426,11.28528 -9.9127,17.57606 -16.661,24.55311 -14.37345,14.75474 -32.94081,23.10432 -56.27389,25.20124 -14.7166,1.37253 -37.51594,-1.22002 -49.02996,-5.56638 -13.91592,-5.22326 -24.62928,-15.09787 -31.07262,-28.63258 -5.03263,-10.52276 -11.09465,-32.36892 -13.15345,-47.39054 -0.99128,-7.01518 -0.99128,-22.3418 -0.0381,-26.42128 1.1819,-4.95637 3.31696,-8.69271 7.32018,-12.65781 7.62515,-7.62519 18.83427,-11.8953 38.31649,-14.64036 11.43782,-1.60129 26.00194,-2.97383 36.79158,-3.43134 10.06528,-0.45751 10.71338,-0.45751 19.21544,-0.0381 z m 236.03773,0 c 19.9018,0.8769 41.7859,3.46947 52.8042,6.29078 17.0422,4.38449 26.4594,11.36154 30.0813,22.30369 2.7832,8.42582 1.9442,25.50625 -2.0968,43.53982 -2.1351,9.53148 -6.6339,23.94309 -9.684,30.84388 -6.367,14.64036 -18.0336,25.43 -33.0169,30.65326 -4.3464,1.52503 -14.2209,3.62196 -21.6936,4.5751 -6.5195,0.8769 -19.5205,1.18191 -25.9257,0.61002 -26.6881,-2.3638 -47.7336,-13.19158 -62.4121,-32.06391 -4.9945,-6.44329 -11.7809,-18.87234 -17.233,-31.64453 -2.7832,-6.51954 -5.9095,-16.08914 -6.977,-21.35052 -1.1438,-5.7189 -1.22,-14.03035 -0.1525,-18.10983 2.0207,-7.70144 8.995,-13.99222 17.1683,-19.21071 8.1732,-5.21849 17.5454,-9.36468 32.9292,-12.77695 4.8039,-1.06753 9.0645,-1.84911 13.3964,-2.42577 4.3321,-0.57665 8.7356,-0.94838 13.8255,-1.1962 8.7689,-0.45751 9.3408,-0.45751 18.9867,-0.0381 z"
         transform="matrix(0.35277777,0,0,0.35277777,-7.5311754,-5.5947326)" />
      <path
         d="m 1100.044,507.00376 c -16.6612,0.83878 -30.6153,2.82133 -63.4797,8.99773 -41.32857,7.73956 -53.26197,9.15022 -75.48937,8.80709 -17.1567,-0.26689 -24.515,-1.22003 -49.1826,-6.36703 -16.47036,-3.43134 -19.32975,-4.00322 -24.78176,-4.91825 -10.10341,-1.71567 -34.58035,-4.68949 -47.46681,-5.83326 -8.42584,-0.7244 -31.11086,-0.61002 -38.69788,0.19062 -13.03906,1.41066 -24.0574,3.27884 -48.61055,8.27333 -8.27333,1.71567 -18.71984,3.77447 -23.2187,4.57512 -4.49886,0.83876 -8.2352,1.56316 -8.27333,1.63941 -0.0763,0.0763 -0.22875,3.77447 -0.38126,8.27333 -0.26688,9.22647 0.22876,13.68721 1.94442,17.27105 0.53377,1.18191 2.6307,3.85072 5.03263,6.48141 9.30273,10.10337 10.82777,12.46718 12.69594,19.36798 4.15572,15.05974 7.43455,25.35375 11.74279,36.56277 4.95637,12.96282 10.78963,25.54438 13.64908,29.58573 9.79838,13.72534 31.33948,23.33307 59.62891,26.53565 2.74511,0.30501 8.69273,0.45751 15.82235,0.45751 19.71104,-0.0763 32.33076,-2.09692 44.22611,-7.2058 19.67296,-8.46395 34.77076,-23.98121 49.33496,-50.82187 3.5457,-6.55767 4.9945,-10.17963 7.5108,-18.83422 3.1645,-11.13278 4.232,-14.22097 6.4433,-18.79609 2.4401,-5.03262 4.0414,-7.01517 6.7483,-8.2352 1.9444,-0.87689 2.3257,-0.91502 10.1415,-0.83876 9.7602,0.0763 11.2472,0.41938 14.1447,3.01194 4.5751,4.11759 7.0152,8.76897 11.2853,21.65553 6.367,19.21548 12.58147,31.91141 21.35047,43.61608 3.5076,4.68949 9.7984,11.36152 13.8016,14.64036 21.1218,17.27105 56.0832,25.20124 87.8041,19.90174 26.2686,-4.38449 47.3521,-17.57606 58.5992,-36.63903 4.4227,-7.54894 8.235,-17.95732 12.6576,-34.80899 7.587,-28.8232 10.4846,-35.03773 18.8725,-40.56599 2.2112,-1.44878 3.3169,-2.44006 3.6601,-3.27883 0.4955,-1.22003 0.5337,-1.86817 0.4955,-12.39093 0,-3.16446 0,-6.93893 0.038,-8.46397 0,-2.21129 -0.1143,-2.93569 -0.7624,-3.81259 -1.182,-1.56316 -3.4314,-2.70694 -6.4435,-3.16445 -6.2907,-1.0294 -12.8865,-2.47818 -23.0661,-5.14701 -14.1064,-3.6982 -17.309,-4.30822 -33.7411,-6.6339 -22.1129,-3.12633 -31.0725,-3.73634 -44.0352,-3.08821 z m -242.9005,10.67526 c 9.95078,0.49564 16.12722,1.22004 24.43877,2.89758 32.97886,6.59579 49.90686,17.00417 53.75766,33.01707 0.8387,3.5457 1.0294,10.56088 0.3812,14.79286 -1.6013,10.294 -5.8333,21.92241 -13.9923,38.31656 -5.6426,11.28528 -9.9127,17.57606 -16.661,24.55311 -14.37345,14.75474 -32.94081,23.10432 -56.27389,25.20124 -14.7166,1.37253 -37.51594,-1.22002 -49.02996,-5.56638 -13.91592,-5.22326 -24.62928,-15.09787 -31.07262,-28.63258 -5.03263,-10.52276 -11.09465,-32.36892 -13.15345,-47.39054 -0.99128,-7.01518 -0.99128,-22.3418 -0.0381,-26.42128 1.1819,-4.95637 3.31696,-8.69271 7.32018,-12.65781 7.62515,-7.62519 18.83427,-11.8953 38.31649,-14.64036 11.43782,-1.60129 26.00194,-2.97383 36.79158,-3.43134 10.06528,-0.45751 10.71338,-0.45751 19.21544,-0.0381 z m 236.0377,0 c 19.9018,0.8769 41.7859,3.46947 52.8042,6.29078 17.0422,4.38449 26.4594,11.36154 30.0813,22.30369 2.7832,8.42582 1.9442,25.50625 -2.0968,43.53982 -2.1351,9.53148 -6.6339,23.94309 -9.684,30.84388 -6.367,14.64036 -18.0336,25.43 -33.0169,30.65326 -4.3464,1.52503 -14.2209,3.62196 -21.6936,4.5751 -6.5195,0.8769 -19.5205,1.18191 -25.9257,0.61002 -26.6881,-2.3638 -47.7336,-13.19158 -62.4121,-32.06391 -4.9945,-6.44329 -11.7809,-18.87234 -17.233,-31.64453 -2.7832,-6.51954 -5.90947,-16.08914 -6.97697,-21.35052 -1.1438,-5.7189 -1.22,-14.03035 -0.1525,-18.10983 2.0207,-7.70144 8.99497,-13.99222 17.16827,-19.21071 8.1732,-5.21849 17.5454,-9.36468 32.9292,-12.77695 4.8039,-1.06753 9.0645,-1.84911 13.3964,-2.42577 4.3321,-0.57665 8.7356,-0.94838 13.8255,-1.1962 8.7689,-0.45751 9.3408,-0.45751 18.9867,-0.0381 z"
         id="path1159"
         style="stroke-width:0.0381258"
         sodipodi:nodetypes="sccccccccccccccccccccccccccccccccccccscssscccccccccccccsssccccccccsccscscss"
         clip-path="url(#clipPath1163-4-5)"
         transform="matrix(0.32484237,0.13758486,-0.13758486,0.32484237,-110.92854,-156.83253)" />
    </g>
  </g>
</svg>
